<?xml version="1.0" encoding="UTF-8"?>
<svg width="107px" height="29px" viewBox="0 0 107 29" version="1.1" xmlns="http://www.w3.org/2000/svg" xmlns:xlink="http://www.w3.org/1999/xlink">
    <!-- Generator: Sketch 55 (78076) - https://sketchapp.com -->
    <title>logo-daily-fullcolor-lightground</title>
    <desc>Created with Sketch.</desc>
    <g id="Logos" stroke="none" stroke-width="1" fill="none" fill-rule="evenodd">
        <g id="Logos-/-Daily-/-Full-Color-/-Light-Ground">
            <path d="M5.09327073,19.3058036 L7.04388505,19.3058036 C11.2997708,19.3058036 13.3094947,16.8649554 13.3094947,12.4051339 L13.3094947,12.1640625 C13.3094947,7.734375 11.4475446,5.35379464 6.98477552,5.35379464 L5.09327073,5.35379464 L5.09327073,19.3058036 Z M0.305399212,23.1026786 L0.305399212,1.55691964 L7.22121362,1.55691964 C14.639459,1.55691964 18.3042495,5.65513393 18.3042495,12.1037946 L18.3042495,12.3448661 C18.3042495,18.7935268 14.6099042,23.1026786 7.19165886,23.1026786 L0.305399212,23.1026786 Z M25.5451663,23.4341518 C22.7374639,23.4341518 20.3730829,22.0479911 20.3730829,18.7332589 C20.3730829,15.0569196 23.6832163,13.6707589 28.4119783,13.6707589 L30.1557093,13.6707589 L30.1557093,13.0379464 C30.1557093,11.1696429 29.5941688,10.1450893 27.6435545,10.1450893 C25.958933,10.1450893 25.1905092,11.0189732 25.0131806,12.375 L20.9641781,12.375 C21.230171,8.63839286 24.1265377,6.98102679 27.9095473,6.98102679 C31.6925569,6.98102679 34.3820403,8.54799107 34.3820403,12.8270089 L34.3820403,23.1026786 L30.2148188,23.1026786 L30.2148188,21.2042411 C29.3281759,22.4698661 27.9686568,23.4341518 25.5451663,23.4341518 Z M26.8160211,20.390625 C28.7075259,20.390625 30.1557093,19.3359375 30.1557093,17.5881696 L30.1557093,16.2622768 L28.5006426,16.2622768 C26.0180425,16.2622768 24.5698592,16.8046875 24.5698592,18.4921875 C24.5698592,19.6372768 25.2496187,20.390625 26.8160211,20.390625 Z M38.1650403,23.1026786 L42.4209261,23.1026786 L42.4209261,7.34263393 L38.1650403,7.34263393 L38.1650403,23.1026786 Z M46.4699381,23.1026786 L50.7258239,23.1026786 L50.7258239,0.200892857 L46.4699381,0.200892857 L46.4699381,23.1026786 Z M56.5776669,28.4665179 L59.296705,21.5055804 L53.1493144,7.34263393 L57.7598574,7.34263393 L61.5133122,16.8046875 L64.9712194,7.34263393 L69.0793314,7.34263393 L60.7153336,28.4665179 L56.5776669,28.4665179 Z M40.2800866,4.78125283 C39.0935972,4.78125283 38.1650403,3.84748241 38.1650403,2.61160979 C38.1650403,1.37573716 39.0935972,0.441966738 40.2800866,0.441966738 C41.4923693,0.441966738 42.4209262,1.37573716 42.4209262,2.61160979 C42.4209262,3.84748241 41.4923693,4.78125283 40.2800866,4.78125283 Z" id="Daily" fill="#1F2D3D"></path>
            <path d="M69.3531396,23.4441932 C70.5657104,23.4441932 71.4929705,22.4771524 71.4929705,21.2621523 C71.4929705,20.0719482 70.5657104,19.1049073 69.3531396,19.1049073 C68.1643446,19.1049073 67.2370845,20.0719482 67.2370845,21.2621523 C67.2370845,22.4771524 68.1643446,23.4441932 69.3531396,23.4441932 Z" id="Pulse" fill="#76C720"></path>
            <path d="M81.1376745,23.4341518 C76.6157958,23.4341518 73.1874434,20.5714286 73.1874434,15.4185268 L73.1874434,15.1774554 C73.1874434,10.0848214 76.7635696,6.98102679 81.1672292,6.98102679 C84.7433555,6.98102679 88.0534889,8.578125 88.4377008,13.0982143 L84.3886983,13.0982143 C84.0931507,11.2600446 82.9996245,10.4162946 81.2558935,10.4162946 C79.0392863,10.4162946 77.5615482,12.1037946 77.5615482,15.1171875 L77.5615482,15.3582589 C77.5615482,18.5223214 78.950622,20.1495536 81.3445578,20.1495536 C83.058734,20.1495536 84.4478078,19.125 84.6546912,17.1060268 L88.5263651,17.1060268 C88.289927,20.8426339 85.6299983,23.4341518 81.1376745,23.4341518 Z M98.3976557,23.4341518 C93.7871128,23.4341518 90.270096,20.3002232 90.270096,15.3883929 L90.270096,15.1473214 C90.270096,10.2053571 93.7871128,6.98102679 98.4272105,6.98102679 C103.067308,6.98102679 106.55477,10.1450893 106.55477,15.0569196 L106.55477,15.2979911 C106.55477,20.2700893 103.037753,23.4341518 98.3976557,23.4341518 Z M98.4272105,20.1194196 C100.821146,20.1194196 102.21022,18.3113839 102.21022,15.328125 L102.21022,15.1171875 C102.21022,12.1037946 100.821146,10.2957589 98.4272105,10.2957589 C96.0628295,10.2957589 94.6442009,12.0435268 94.6442009,15.0569196 L94.6442009,15.2979911 C94.6442009,18.3113839 96.00372,20.1194196 98.4272105,20.1194196 Z" id="Co" fill="#8897A8"></path>
        </g>
    </g>
</svg>